<svg width="64" height="64" viewBox="0 0 64 64" fill="none" xmlns="http://www.w3.org/2000/svg">
<path d="M56 26.6667H8M42.6667 5.33333V16M21.3333 5.33333V16M24 42.6667L29.3333 48L41.3333 36M20.8 58.6667H43.2C47.6804 58.6667 49.9206 58.6667 51.6319 57.7947C53.1372 57.0277 54.3611 55.8039 55.1281 54.2986C56 52.5873 56 50.3471 56 45.8667V23.4667C56 18.9862 56 16.746 55.1281 15.0347C54.3611 13.5294 53.1372 12.3056 51.6319 11.5386C49.9206 10.6667 47.6804 10.6667 43.2 10.6667H20.8C16.3196 10.6667 14.0794 10.6667 12.3681 11.5386C10.8628 12.3056 9.63893 13.5294 8.87195 15.0347C8 16.746 8 18.9862 8 23.4667V45.8667C8 50.3471 8 52.5873 8.87195 54.2986C9.63893 55.8039 10.8628 57.0277 12.3681 57.7947C14.0794 58.6667 16.3196 58.6667 20.8 58.6667Z" stroke="white" stroke-width="3.5" stroke-linecap="round" stroke-linejoin="round"/>
</svg>
