<svg width="64" height="64" viewBox="0 0 64 64" fill="none" xmlns="http://www.w3.org/2000/svg">
<path d="M54.8008 32.0431C54.7658 35.93 53.6555 39.7313 51.593 43.0261C49.5305 46.3208 46.5962 48.9803 43.1153 50.7101L32.4004 56.5342L21.6856 50.9341C18.1706 49.1873 15.2139 46.4928 13.1491 43.1548C11.0843 39.8168 9.99355 35.9681 10 32.0431V11.7334C10 10.7432 10.3934 9.79363 11.0935 9.09349C11.7937 8.39334 12.7433 8 13.7334 8H51.0674C52.0575 8 53.0071 8.39334 53.7073 9.09349C54.4074 9.79363 54.8008 10.7432 54.8008 11.7334V32.0431Z" stroke="white" stroke-width="3.5" stroke-linecap="round" stroke-linejoin="round"/>
<path d="M26.8027 35.9998C26.8027 37.485 27.3927 38.9094 28.4429 39.9597C29.4931 41.0099 30.9175 41.5999 32.4028 41.5999M32.4028 41.5999C33.1525 41.6556 33.9053 41.549 34.6101 41.2873C35.3148 41.0256 35.9548 40.615 36.4864 40.0834C37.018 39.5518 37.4286 38.9118 37.6903 38.2071C37.952 37.5024 38.0586 36.7495 38.0029 35.9998C38.0029 30.3997 26.8027 30.3997 26.8027 24.7996C26.7469 24.0499 26.8535 23.297 27.1152 22.5923C27.3769 21.8875 27.7876 21.2476 28.3192 20.716C28.8507 20.1844 29.4907 19.7738 30.1954 19.5121C30.9002 19.2503 31.6531 19.1437 32.4028 19.1995M32.4028 41.5999V45.3333M32.4028 19.1995C33.888 19.1995 35.3124 19.7895 36.3626 20.8397C37.4129 21.89 38.0029 23.3144 38.0029 24.7996M32.4028 19.1995V15.4661" stroke="white" stroke-width="4" stroke-linecap="round" stroke-linejoin="round"/>
</svg>
