<svg width="64" height="64" viewBox="0 0 64 64" fill="none" xmlns="http://www.w3.org/2000/svg">
<path d="M58.7626 59.2374C59.446 59.9208 60.554 59.9208 61.2374 59.2374C61.9208 58.554 61.9208 57.446 61.2374 56.7626L44.2767 39.8019C47.6887 35.8232 49.75 30.6523 49.75 25C49.75 12.4355 39.5645 2.25 27 2.25C14.4355 2.25 4.25 12.4355 4.25 25C4.25 37.5645 14.4355 47.75 27 47.75C32.6523 47.75 37.8232 45.6887 41.8019 42.2767L58.7626 59.2374Z" stroke="white" stroke-width="3.5" stroke-linecap="round" stroke-linejoin="round"/>
<path d="M36.1404 15.6709C36.5414 16.1449 36.5961 16.8193 36.3044 17.6944C36.0128 18.5694 35.5206 19.3533 34.8279 20.046L32.6268 22.2472L34.8142 31.7631C34.8598 31.9363 34.8051 32.0867 34.6502 32.2143L32.9003 33.5268C32.8365 33.5815 32.7499 33.6089 32.6405 33.6089C32.604 33.6089 32.5721 33.6043 32.5448 33.5952C32.4081 33.5678 32.3124 33.4949 32.2577 33.3764L28.4434 26.4309L24.9025 29.972L25.6271 32.6245C25.6727 32.7794 25.6362 32.9207 25.5177 33.0483L24.2053 34.3608C24.1232 34.4429 24.0184 34.4839 23.8908 34.4839H23.8635C23.7268 34.4657 23.6174 34.4064 23.5354 34.3061L20.9515 30.8607L17.5063 28.2767C17.406 28.2129 17.3468 28.1081 17.3286 27.9622C17.3195 27.8437 17.3605 27.7298 17.4516 27.6204L18.7641 26.2942C18.8461 26.2122 18.9509 26.1712 19.0785 26.1712C19.1332 26.1712 19.1697 26.1757 19.1879 26.1848L21.8401 26.9095L25.381 23.3684L18.436 19.5538C18.3084 19.4809 18.2309 19.3715 18.2035 19.2257C18.1853 19.0798 18.2263 18.9568 18.3266 18.8565L20.0765 17.1065C20.2041 16.988 20.3408 16.9515 20.4867 16.9971L29.5781 19.171L31.7655 16.9834C32.4582 16.2907 33.242 15.7985 34.117 15.5068C34.992 15.2151 35.6664 15.2698 36.1404 15.6709Z" fill="white"/>
</svg>
