<svg width="64" height="64" viewBox="0 0 64 64" fill="none" xmlns="http://www.w3.org/2000/svg">
<g clip-path="url(#clip0_5414_16541)">
<path d="M31.694 50.4624C33.2393 51.7878 35.731 54.2347 35.6711 56.2058C35.6711 56.2964 35.6591 56.387 35.6591 56.489C35.4435 58.7319 33.407 60.012 30.9753 60.0007C27.9805 59.9894 26.1956 58.0976 26.3393 55.9452C26.4591 54.1101 28.795 51.7878 30.2206 50.553C30.4961 50.3151 30.544 50.2472 30.8914 50.1452C31.2987 50.1452 31.3586 50.1792 31.694 50.4624ZM47.7581 9.62452C45.8055 6.71319 43.1341 5.0253 40.1753 3.72257C37.1206 2.51046 33.6346 1.97804 30.9992 2.00069C25.7164 2.00069 22.47 3.496 21.2841 3.96046C14.8633 7.121 11.1737 11.8788 11.3534 19.9671C12.2039 29.2788 22.9732 39.9046 30.0169 46.4523C30.2206 46.6335 30.556 46.962 30.7596 47.03L31.1549 47.0413C31.4065 46.962 31.3706 46.9847 31.5742 46.8034C37.8393 41.23 48.4289 30.287 50.2497 22.3687C51.0883 17.928 50.6211 14.1558 47.7581 9.62452ZM30.3763 41.8644C27.0221 36.0757 22.5659 27.0585 22.0747 20.4542C21.6674 15.0733 23.4404 5.59171 30.3763 4.96866V41.8644ZM47.3747 22.3913C45.4102 28.8257 38.1148 36.8913 33.1315 41.6831C36.4617 35.8038 40.9419 26.5827 41.1815 19.9444C41.3732 14.7448 40.0075 7.95929 35.4315 5.05929C46.069 7.13233 49.2674 16.1722 47.3747 22.3913Z" fill="white"/>
<path d="M35.6716 56.2051C35.7315 54.234 33.2399 51.7871 31.6945 50.4617C31.3591 50.1785 31.2992 50.1445 30.8919 50.1445C30.5445 50.2465 30.4966 50.3145 30.2211 50.5523C28.7956 51.7871 26.4597 54.1094 26.3399 55.9445C26.1961 58.0969 27.981 59.9887 30.9758 60C33.4076 60.0113 35.444 58.7313 35.6597 56.4883C35.6597 56.3863 35.6716 56.2957 35.6716 56.2051Z" fill="white"/>
<path d="M40.3882 6.83382C37.0086 4.72473 31.4698 4.78332 29.1229 5.07624L28.6535 3.31939L38.5106 3.75879L40.3882 6.83382Z" fill="white"/>
</g>
<defs>
<clipPath id="clip0_5414_16541">
<rect width="46" height="58" fill="white" transform="translate(8 2)"/>
</clipPath>
</defs>
</svg>
