<svg width="48" height="48" viewBox="0 0 48 48" fill="none" xmlns="http://www.w3.org/2000/svg">
<rect x="0.5" y="0.5" width="47" height="47" rx="7.5" stroke="#0040C1"/>
<path d="M30.5 20.75V24M30.5 24V27.25M30.5 24H33.75M30.5 24H27.25M25.0833 18.5833C25.0833 20.9766 23.1432 22.9167 20.75 22.9167C18.3568 22.9167 16.4167 20.9766 16.4167 18.5833C16.4167 16.1901 18.3568 14.25 20.75 14.25C23.1432 14.25 25.0833 16.1901 25.0833 18.5833ZM14.25 32.6667C14.25 29.0768 17.1601 26.1667 20.75 26.1667C24.3399 26.1667 27.25 29.0768 27.25 32.6667V33.75H14.25V32.6667Z" stroke="#0040C1" stroke-width="1.5" stroke-linecap="round" stroke-linejoin="round"/>
</svg>
