<svg width="48" height="48" viewBox="0 0 48 48" fill="none" xmlns="http://www.w3.org/2000/svg">
<rect x="0.5" y="0.5" width="47" height="47" rx="7.5" stroke="#0040C1"/>
<path d="M23.9997 35.9163C21.6428 35.9163 19.3388 35.2174 17.3791 33.908C15.4194 32.5986 13.8921 30.7375 12.9901 28.56C12.0882 26.3825 11.8522 23.9865 12.312 21.6749C12.7718 19.3632 13.9067 17.2399 15.5733 15.5733C17.2399 13.9067 19.3632 12.7718 21.6749 12.312C23.9865 11.8522 26.3825 12.0882 28.56 12.9901C30.7375 13.8921 32.5986 15.4194 33.908 17.3791C35.2174 19.3388 35.9163 21.6428 35.9163 23.9997C35.9163 27.1602 34.6608 30.1912 32.426 32.426C30.1912 34.6608 27.1602 35.9163 23.9997 35.9163ZM23.9997 13.7854C21.9795 13.7854 20.0047 14.3845 18.3249 15.5068C16.6452 16.6292 15.336 18.2244 14.5629 20.0908C13.7898 21.9573 13.5875 24.011 13.9817 25.9924C14.3758 27.9738 15.3486 29.7938 16.7771 31.2223C18.2056 32.6508 20.0256 33.6236 22.007 34.0177C23.9883 34.4118 26.0421 34.2095 27.9085 33.4364C29.7749 32.6633 31.3702 31.3542 32.4925 29.6744C33.6149 27.9947 34.214 26.0199 34.214 23.9997C34.214 21.2907 33.1378 18.6926 31.2223 16.7771C29.3067 14.8615 26.7087 13.7854 23.9997 13.7854Z" fill="#0040C1"/>
<path d="M27.2684 28.4684L22.5103 24.0275V16.5518H24.2126V23.3681L28.4686 27.3483L27.2684 28.4684Z" fill="#0040C1"/>
</svg>
