<svg width="48" height="48" viewBox="0 0 48 48" fill="none" xmlns="http://www.w3.org/2000/svg">
<rect x="0.5" y="0.5" width="47" height="47" rx="7.5" stroke="#0040C1"/>
<path d="M35.375 33.75C35.375 33.75 37 33.75 37 32.125C37 30.5 35.375 25.625 28.875 25.625C22.375 25.625 20.75 30.5 20.75 32.125C20.75 33.75 22.375 33.75 22.375 33.75H35.375ZM22.4113 32.125C22.4057 32.1243 22.3978 32.1233 22.3882 32.1217C22.3837 32.121 22.3793 32.1202 22.375 32.1193C22.3774 31.6903 22.6462 30.4462 23.6088 29.3232C24.5092 28.2727 26.0844 27.25 28.875 27.25C31.6656 27.25 33.2408 28.2727 34.1412 29.3232C35.1038 30.4462 35.3726 31.6903 35.375 32.1193C35.3707 32.1202 35.3663 32.121 35.3618 32.1217C35.3522 32.1233 35.3443 32.1243 35.3387 32.125H22.4113Z" fill="#0040C1"/>
<path d="M28.875 22.375C30.6699 22.375 32.125 20.9199 32.125 19.125C32.125 17.3301 30.6699 15.875 28.875 15.875C27.0801 15.875 25.625 17.3301 25.625 19.125C25.625 20.9199 27.0801 22.375 28.875 22.375ZM33.75 19.125C33.75 21.8174 31.5674 24 28.875 24C26.1826 24 24 21.8174 24 19.125C24 16.4326 26.1826 14.25 28.875 14.25C31.5674 14.25 33.75 16.4326 33.75 19.125Z" fill="#0040C1"/>
<path d="M22.2709 26.0799C21.6732 25.8888 21.0092 25.7498 20.2727 25.6787C19.9082 25.6435 19.5259 25.625 19.125 25.625C12.625 25.625 11 30.5 11 32.125C11 33.2083 11.5417 33.75 12.625 33.75H19.4766C19.2478 33.2884 19.125 32.7411 19.125 32.125C19.125 30.4833 19.738 28.8068 20.896 27.4063C21.2916 26.9278 21.7508 26.4816 22.2709 26.0799ZM18.9951 27.2507C18.0242 28.7346 17.5 30.4264 17.5 32.125H12.625C12.625 31.7013 12.8919 30.4512 13.8588 29.3232C14.7451 28.2891 16.2853 27.282 18.9951 27.2507Z" fill="#0040C1"/>
<path d="M13.4375 19.9375C13.4375 17.2451 15.6201 15.0625 18.3125 15.0625C21.0049 15.0625 23.1875 17.2451 23.1875 19.9375C23.1875 22.6299 21.0049 24.8125 18.3125 24.8125C15.6201 24.8125 13.4375 22.6299 13.4375 19.9375ZM18.3125 16.6875C16.5176 16.6875 15.0625 18.1426 15.0625 19.9375C15.0625 21.7324 16.5176 23.1875 18.3125 23.1875C20.1074 23.1875 21.5625 21.7324 21.5625 19.9375C21.5625 18.1426 20.1074 16.6875 18.3125 16.6875Z" fill="#0040C1"/>
</svg>
