<svg width="48" height="48" viewBox="0 0 48 48" fill="none" xmlns="http://www.w3.org/2000/svg">
<rect x="0.5" y="0.5" width="47" height="47" rx="7.5" stroke="#0040C1"/>
<path d="M34.8978 26.3231C34.8978 25.5142 34.8978 24.7643 34.8978 24.012C34.8978 23.5244 35.0827 23.3303 35.5611 23.3048C36.046 23.2825 36.504 23.0755 36.8413 22.7264C37.1786 22.3773 37.3696 21.9125 37.3753 21.4271C37.383 18.3041 37.383 15.1804 37.3753 12.0558C37.375 11.8056 37.3251 11.5579 37.2286 11.327C37.1321 11.0962 36.9908 10.8867 36.8129 10.7107C36.635 10.5348 36.424 10.3958 36.1921 10.3018C35.9602 10.2078 35.7119 10.1606 35.4617 10.1631C33.9422 10.1561 32.4239 10.1631 30.9043 10.1631C30.7594 10.1726 30.6161 10.1282 30.5019 10.0384C30.3878 9.94858 30.3109 9.81971 30.2861 9.6766C30.2658 9.537 30.2968 9.39477 30.3733 9.27622C30.4497 9.15768 30.5666 9.07086 30.7021 9.03182C30.785 9.0124 30.8701 9.00424 30.9552 9.00755C32.4643 9.00755 33.9734 9.00755 35.4825 9.00755C36.2877 9.00998 37.0594 9.33028 37.6296 9.89877C38.1998 10.4673 38.5225 11.2379 38.5273 12.0431C38.5335 15.1761 38.5335 18.3091 38.5273 21.4421C38.5206 22.0991 38.3012 22.7361 37.9021 23.2579C37.503 23.7797 36.9456 24.1582 36.3133 24.3367C36.0822 24.3968 36.0406 24.4858 36.043 24.7007C36.0557 25.6136 36.043 26.5276 36.051 27.4405C36.051 27.7328 35.9817 27.9697 35.6975 28.1003C35.4132 28.2308 35.2017 28.1107 34.9926 27.9316C33.6938 26.8199 32.3915 25.713 31.095 24.5979C31.0434 24.5502 30.9828 24.5133 30.9167 24.4895C30.8506 24.4657 30.7804 24.4554 30.7102 24.4592C30.4023 24.4755 30.0937 24.4755 29.7858 24.4592C29.5547 24.443 29.5235 24.5228 29.5246 24.7296C29.5316 27.0645 29.5316 29.4002 29.5246 31.7367C29.5362 32.4327 29.3097 33.1117 28.8827 33.6614C28.4557 34.2111 27.8538 34.5985 27.1766 34.7595C26.9155 34.8218 26.6477 34.8513 26.3793 34.8474C23.2062 34.8474 20.034 34.8474 16.8624 34.8474C16.7784 34.8429 16.6943 34.8551 16.615 34.8833C16.5356 34.9115 16.4627 34.955 16.4002 35.0114C15.113 36.1207 13.8153 37.2208 12.5234 38.3243C12.3131 38.5034 12.0936 38.6178 11.8163 38.4861C11.5389 38.3544 11.4696 38.1394 11.4696 37.8506C11.4765 36.9088 11.4696 35.9671 11.4777 35.0253C11.4834 34.9918 11.4821 34.9574 11.4739 34.9243C11.4658 34.8913 11.4508 34.8603 11.4301 34.8333C11.4094 34.8063 11.3833 34.7838 11.3535 34.7674C11.3238 34.7509 11.2909 34.7408 11.257 34.7376C10.6032 34.5633 10.0263 34.1759 9.61755 33.6367C9.20879 33.0976 8.99156 32.4375 9.00025 31.761C9.00025 28.6665 9.00025 25.5716 9.00025 22.4763C8.99609 22.0702 9.07296 21.6672 9.22637 21.2911C9.37979 20.915 9.60666 20.5733 9.89373 20.2859C10.1808 19.9985 10.5223 19.7712 10.8982 19.6174C11.2742 19.4635 11.677 19.3862 12.0832 19.3899C13.9574 19.3899 15.8317 19.3899 17.706 19.3899C17.9371 19.3899 18.0064 19.346 18.0052 19.0987C17.9948 16.8027 17.9983 14.5055 17.9995 12.2084C17.9995 10.3249 19.3121 9.00755 21.1956 9.00755H25.5497C25.9876 9.00755 26.2522 9.23173 26.243 9.59341C26.2337 9.95508 25.9864 10.1631 25.5601 10.1631H21.1772C19.965 10.1631 19.1538 10.9719 19.1527 12.1818C19.1527 15.2185 19.1527 18.2556 19.1527 21.2931C19.1527 22.5006 19.9615 23.3095 21.1783 23.3106C24.4276 23.3106 27.677 23.3106 30.9263 23.3106C31.2133 23.3029 31.4921 23.4069 31.704 23.6007C32.7474 24.4985 33.8024 25.3894 34.8978 26.3231ZM20.2308 24.3587C20.2574 24.4407 20.2712 24.4846 20.2874 24.5285C20.9807 26.3774 21.6779 28.2262 22.3789 30.0751C22.5199 30.4506 22.3789 30.7753 22.0415 30.8943C21.7353 31.0029 21.4348 30.8435 21.2962 30.4887C21.1679 30.1606 21.0466 29.8289 20.9287 29.495C20.9185 29.4353 20.8853 29.3821 20.8363 29.3467C20.7872 29.3112 20.7262 29.2964 20.6664 29.3055C19.7343 29.3147 18.8022 29.3147 17.87 29.3055C17.8101 29.2989 17.7498 29.3153 17.7014 29.3513C17.6529 29.3873 17.6199 29.4403 17.6089 29.4996C17.4933 29.8231 17.3685 30.1444 17.2484 30.4656C17.2076 30.5939 17.1325 30.7086 17.0311 30.7973C16.9342 30.8774 16.813 30.9225 16.6873 30.9255C16.5615 30.9284 16.4384 30.8889 16.3378 30.8134C16.1067 30.6482 16.0362 30.4032 16.1518 30.0982C16.6614 28.7497 17.171 27.4012 17.6921 26.0538C18.026 25.1907 18.3057 24.3067 18.7124 23.4735C18.7644 23.3672 18.6824 23.3349 18.6419 23.2829C18.366 22.9245 18.1691 22.5118 18.0642 22.0719C17.9625 21.6467 17.9902 21.2122 17.9972 20.7812C17.9972 20.609 17.9752 20.5351 17.766 20.5362C15.8537 20.5455 13.9413 20.5362 12.0289 20.5443C11.5343 20.5482 11.061 20.746 10.7107 21.0952C10.3605 21.4444 10.1612 21.9171 10.1558 22.4116C10.1465 25.5446 10.1465 28.6769 10.1558 31.8083C10.1618 32.2836 10.3451 32.7396 10.6698 33.0867C10.9945 33.4339 11.4372 33.6472 11.911 33.6849C12.4888 33.7323 12.6332 33.8871 12.6332 34.4787C12.6332 35.2044 12.6332 35.9289 12.6332 36.7066C13.7414 35.7602 14.8068 34.8578 15.8687 33.9403C16.0526 33.7718 16.2941 33.6804 16.5435 33.6849C19.8206 33.6918 23.0976 33.6918 26.3747 33.6849C27.5649 33.6849 28.3795 32.868 28.3807 31.6766C28.3807 29.3656 28.3807 27.0453 28.3865 24.7296C28.3865 24.4985 28.3218 24.4523 28.1034 24.4534C25.7923 24.4615 23.4905 24.4534 21.1841 24.4604C20.8632 24.464 20.543 24.4283 20.2308 24.3541V24.3587ZM18.1289 28.15H20.4157C20.0413 27.1562 19.6715 26.1763 19.2775 25.1329C18.8823 26.1717 18.5102 27.1493 18.1289 28.15Z" fill="#0040C1"/>
<path d="M25.9564 14.0552C26.466 14.0552 26.9744 14.0482 27.484 14.0552C27.647 14.0552 27.6966 14.0136 27.692 13.8483C27.6805 13.4358 27.692 13.0221 27.692 12.6096C27.692 12.2318 27.9162 11.9868 28.2548 11.9787C28.5933 11.9706 28.8406 12.2225 28.8441 12.6108C28.8475 12.999 28.8568 13.4196 28.8441 13.8218C28.836 14.0159 28.9007 14.0529 29.0833 14.0529C30.0736 14.0448 31.0638 14.0529 32.053 14.0529C32.3118 14.0529 32.5267 14.1291 32.6504 14.3718C32.6993 14.4616 32.7221 14.5633 32.7162 14.6655C32.7102 14.7676 32.6758 14.866 32.6169 14.9496C32.4828 15.1599 32.2702 15.2153 32.0391 15.2165C31.5099 15.2165 30.9818 15.2246 30.4526 15.2165C30.2792 15.2165 30.2284 15.2581 30.2215 15.4383C30.1903 16.6034 29.8249 17.7349 29.1688 18.6981C29.0602 18.861 29.0417 18.9477 29.2081 19.0875C29.9548 19.7403 30.8717 20.1675 31.8519 20.3193C32.1073 20.3562 32.3442 20.4348 32.4562 20.6925C32.6377 21.1154 32.3072 21.5395 31.8265 21.4817C30.5709 21.3357 29.3923 20.8008 28.4558 19.9518C28.2941 19.8085 28.2247 19.8212 28.0699 19.9518C27.1533 20.7782 26.0072 21.3065 24.7836 21.4667C24.3479 21.5256 24.0822 21.3512 24.0371 20.9953C23.992 20.6394 24.2023 20.384 24.6241 20.3239C25.5773 20.1835 26.4735 19.7837 27.2148 19.1684C27.4286 18.9974 27.4979 18.883 27.3153 18.6114C26.6797 17.6691 26.3298 16.5632 26.3077 15.4268C26.3077 15.2419 26.2453 15.2049 26.0766 15.2072C25.5393 15.2176 25.0008 15.2246 24.4589 15.2072C23.9551 15.1899 23.6766 14.7693 23.8811 14.3672C23.9332 14.2632 24.0154 14.1774 24.117 14.1209C24.2187 14.0644 24.335 14.0399 24.4508 14.0506L25.9564 14.0552ZM28.2675 17.9666C28.7543 17.1933 29.0329 16.3072 29.0763 15.3944C29.0844 15.2292 29.0128 15.2107 28.8753 15.213C28.4732 15.2199 28.0664 15.2269 27.6678 15.213C27.4759 15.2049 27.4459 15.2777 27.4563 15.4441C27.5077 16.3401 27.7864 17.2082 28.2663 17.9666H28.2675Z" fill="#0040C1"/>
<path d="M28.8431 9.58474C28.8412 9.73797 28.7786 9.88419 28.6689 9.99124C28.5593 10.0983 28.4116 10.1574 28.2584 10.1556C28.1051 10.1537 27.9589 10.0911 27.8519 9.98144C27.7448 9.87179 27.6857 9.7241 27.6875 9.57087C27.6894 9.41764 27.752 9.27141 27.8617 9.16436C27.916 9.11136 27.9802 9.06956 28.0506 9.04137C28.1211 9.01317 28.1964 8.99913 28.2722 9.00004C28.3481 9.00095 28.4231 9.0168 28.4928 9.04667C28.5626 9.07655 28.6257 9.11987 28.6787 9.17417C28.7318 9.22846 28.7735 9.29266 28.8017 9.36311C28.8299 9.43355 28.844 9.50886 28.8431 9.58474Z" fill="#0040C1"/>
</svg>
