<svg width="48" height="48" viewBox="0 0 48 48" fill="none" xmlns="http://www.w3.org/2000/svg">
<rect x="0.5" y="0.5" width="47" height="47" rx="7.5" stroke="#0040C1"/>
<path d="M30.1284 29.0449C29.2268 29.9465 27.4511 31.7223 26.0422 33.1312C24.914 34.2594 23.0865 34.2595 21.9583 33.1313C20.5752 31.7482 18.8309 30.0039 17.8719 29.0449C14.4874 25.6604 14.4874 20.173 17.8719 16.7884C21.2564 13.4039 26.7439 13.4039 30.1284 16.7884C33.513 20.173 33.513 25.6604 30.1284 29.0449Z" stroke="#0040C1" stroke-width="1.5" stroke-linecap="round" stroke-linejoin="round"/>
<path d="M27.2502 22.9167C27.2502 24.7116 25.7951 26.1667 24.0002 26.1667C22.2052 26.1667 20.7502 24.7116 20.7502 22.9167C20.7502 21.1217 22.2052 19.6667 24.0002 19.6667C25.7951 19.6667 27.2502 21.1217 27.2502 22.9167Z" stroke="#0040C1" stroke-width="1.5" stroke-linecap="round" stroke-linejoin="round"/>
</svg>
