<svg width="129" height="40" viewBox="0 0 129 40" fill="none" xmlns="http://www.w3.org/2000/svg">
<g clip-path="url(#clip0_5403_6744)">
<g clip-path="url(#clip1_5403_6744)">
<path d="M26.4471 17.5757H24.6434V36.5016H26.4471V17.5757Z" fill="#F05A28"/>
<path d="M29.9217 17.5757H28.118V36.5016H29.9217V17.5757Z" fill="#F05A28"/>
<path d="M33.2571 17.5757H31.4534V36.5016H33.2571V17.5757Z" fill="#F05A28"/>
<path d="M38.9729 26.6292C38.9339 27.1102 38.9144 27.458 38.9144 27.6726C38.9136 28.5193 39.0373 29.3613 39.2815 30.1707C39.5263 30.9842 39.86 31.6599 40.2827 32.198C40.7182 32.7462 41.2683 33.1889 41.8931 33.4939C42.5178 33.7988 43.2015 33.9584 43.8945 33.9611C44.3983 33.9637 44.8984 33.8742 45.371 33.6969C45.8052 33.5403 46.2007 33.2895 46.5301 32.9619C46.8759 32.6192 47.1736 32.0709 47.423 31.3169L47.7263 31.4197C47.4751 32.5663 46.938 33.4305 46.115 34.0125C45.2921 34.5945 44.1972 34.8861 42.8304 34.8873C41.648 34.8873 40.6318 34.6961 39.7817 34.3137C38.9259 33.9256 38.184 33.3181 37.6285 32.5506C36.8103 31.4444 36.4012 30.0829 36.4012 28.4662C36.4012 26.2622 37.1766 24.5333 38.7273 23.2798C39.8178 22.3822 41.1819 21.8993 42.5848 21.9144C43.3178 21.9068 44.0449 22.0491 44.7228 22.3329C45.3618 22.6001 45.9308 23.0151 46.3846 23.5449C47.0893 24.3668 47.4417 25.3949 47.4417 26.6292H38.9729ZM45.2691 26.0565C45.2017 25.0771 45.0243 24.3229 44.737 23.7938C44.4931 23.3304 44.1365 22.9383 43.7012 22.6548C43.2906 22.3821 42.8109 22.2368 42.3205 22.2364C41.4958 22.2364 40.7746 22.5989 40.1568 23.324C39.539 24.049 39.1721 24.9599 39.0563 26.0565H45.2691Z" fill="#0CA5F3"/>
<path d="M52.9859 22.1334H56.6554V22.6917H52.9859V31.2429C52.9859 32.2722 53.1588 33.0069 53.5046 33.4469C53.6931 33.6968 53.9408 33.8939 54.2247 34.0196C54.5278 34.1587 54.857 34.2292 55.1895 34.2261C55.5674 34.2406 55.9416 34.1468 56.2696 33.9556C56.5581 33.7752 56.875 33.4445 57.2202 32.9636L57.4357 33.1548C57.1376 33.7235 56.6697 34.1813 56.0994 34.4624C55.5265 34.7462 54.8115 34.8884 53.9542 34.889C52.8174 34.889 51.9897 34.6635 51.4712 34.2126C51.2047 33.9974 51.0124 33.7014 50.9223 33.3676C50.836 33.0405 50.7929 32.4504 50.7929 31.5973V22.6917H49.2437V22.4554C49.8697 22.2498 50.4482 21.8533 50.9791 21.2659C51.2755 20.936 51.534 20.573 51.7497 20.1837C51.9783 19.7406 52.1633 19.2757 52.3022 18.7957L52.4476 18.3105H52.9859V22.1334Z" fill="#0CA5F3"/>
<path d="M62.8485 22.6925V30.3671L62.8627 31.4827C62.8627 32.1482 62.9011 32.6349 62.978 32.9427C63.048 33.2393 63.204 33.5076 63.4258 33.7129C63.6954 33.9774 64.1914 34.178 64.9138 34.3144V34.6229H58.5299V34.3144C59.1081 34.2369 59.5222 34.1259 59.7714 33.9844C60.0206 33.8428 60.2245 33.6011 60.378 33.2584C60.4844 33.0329 60.5553 32.6938 60.6023 32.2384C60.6493 31.783 60.667 31.1255 60.667 30.2643V22.6889H58.5716V22.1306H60.6662V18.5495C60.6662 17.6873 60.7752 17.0064 60.9934 16.5068C61.2115 16.0072 61.6023 15.5469 62.1657 15.1261C62.7259 14.7267 63.3509 14.4306 64.012 14.2513C64.7624 14.0377 65.5384 13.9315 66.3176 13.9357C67.069 13.9357 67.6708 14.0679 68.1231 14.3325C68.5754 14.597 68.8018 14.9496 68.8024 15.3903C68.8063 15.5257 68.7833 15.6604 68.7348 15.7866C68.6864 15.9127 68.6134 16.0276 68.5204 16.1244C68.4324 16.2193 68.3259 16.2945 68.2077 16.3452C68.0895 16.3958 67.9622 16.4207 67.834 16.4184C67.5912 16.4241 67.3531 16.3494 67.1556 16.2056C66.9198 16.0137 66.7234 15.7765 66.5774 15.5076C66.3079 15.0578 66.0862 14.7614 65.9124 14.6184C65.7072 14.4661 65.4565 14.3909 65.2029 14.4055C64.8441 14.4042 64.4892 14.4821 64.1627 14.6337C63.8627 14.7639 63.5996 14.9685 63.3974 15.2289C63.1759 15.5511 63.0322 15.9218 62.978 16.3111C62.9011 16.7566 62.8627 17.4005 62.8627 18.2428V22.137H65.7128V22.6952L62.8485 22.6925Z" fill="#0CA5F3"/>
<path d="M69.9077 14.5089L74.0694 13.9795V30.3658L74.0836 31.4814C74.0836 32.147 74.122 32.634 74.1988 32.9424C74.2678 33.2386 74.4222 33.5071 74.6422 33.7135C74.9118 33.978 75.4078 34.1785 76.1302 34.315V34.6234H69.7454V34.315C70.3236 34.2374 70.7374 34.1277 70.9869 33.9858C71.2364 33.8439 71.4389 33.6016 71.5944 33.2589C71.6999 33.0335 71.7717 32.6944 71.8178 32.239C71.8639 31.7835 71.8826 31.127 71.8826 30.2666V18.7493C71.8826 17.7519 71.8586 17.0475 71.8107 16.6363C71.7812 16.2834 71.6722 15.9421 71.4924 15.6389C71.3541 15.3899 71.1485 15.1865 70.9 15.0527C70.6695 14.9324 70.3372 14.8591 69.9033 14.8326L69.9077 14.5089Z" fill="#0CA5F3"/>
<path d="M76.4834 22.1347H82.0896V22.4566C81.6941 22.5168 81.41 22.5949 81.2374 22.6911C81.0596 22.7855 80.912 22.9296 80.812 23.1065C80.7121 23.2834 80.664 23.4857 80.6734 23.6895C80.6734 24.0809 80.87 24.7801 81.2631 25.7871L83.6787 32.081L85.7884 26.7855C86.308 25.4628 86.5678 24.5288 86.5678 23.9835C86.5678 23.5434 86.4475 23.1937 86.2069 22.9346C85.9663 22.6755 85.6148 22.5162 85.1525 22.4566V22.1338H89.2841V22.4566C88.9633 22.5361 88.6548 22.6599 88.3671 22.8246C88.1385 22.9839 87.9442 23.1888 87.796 23.427C87.517 23.8581 87.0736 24.8228 86.4659 26.321L82.2767 36.6651C81.776 37.9 81.3713 38.7032 81.0627 39.0748C80.823 39.3711 80.5204 39.6084 80.1776 39.7686C79.8348 39.9289 79.4606 40.008 79.0834 40C78.5726 40 78.1609 39.8996 77.8481 39.6988C77.5354 39.498 77.3787 39.2362 77.3781 38.9133C77.3739 38.797 77.3964 38.6813 77.444 38.5754C77.4916 38.4696 77.5629 38.3765 77.6521 38.3037C77.8582 38.1437 78.1132 38.0629 78.3722 38.0755C78.6708 38.0866 78.9644 38.1564 79.2368 38.2811C79.5543 38.408 79.7585 38.4865 79.8496 38.5165C79.9546 38.5482 80.0638 38.5631 80.1733 38.5607C80.7692 38.5607 81.2543 38.1032 81.6285 37.1881L82.0719 36.0671C82.2634 35.5946 82.3592 35.2305 82.3592 34.975C82.3592 34.6143 82.1771 33.983 81.8129 33.0812L78.8183 25.7583L78.3926 24.7031C78.1325 24.0772 77.9303 23.632 77.786 23.3675C77.6783 23.1508 77.5311 22.9568 77.3524 22.7957C77.0989 22.605 76.7991 22.4881 76.4851 22.4575L76.4834 22.1347Z" fill="#F05A28"/>
<path d="M89.444 22.4415L93.6057 21.913V30.3749L93.6198 31.4878C93.6198 32.1491 93.6583 32.6346 93.7351 32.9442C93.8041 33.2399 93.9585 33.5078 94.1785 33.7135C94.4481 33.9768 94.9444 34.1767 95.6674 34.3132V34.6216H89.2826V34.3132C89.8608 34.2357 90.2746 34.1262 90.5241 33.9849C90.7736 33.8437 90.9761 33.6032 91.1315 33.2635C91.2368 33.0398 91.3113 32.7013 91.355 32.248C91.3988 31.7947 91.4206 31.1391 91.4206 30.2811V26.6738C91.4206 25.6709 91.3964 24.9669 91.3479 24.5617C91.3179 24.2124 91.2093 23.8748 91.0304 23.5751C90.89 23.3262 90.6851 23.1213 90.4381 22.9826C90.2063 22.8623 89.8738 22.7869 89.4404 22.7562L89.444 22.4415ZM92.459 16.6381C92.2867 16.6439 92.1149 16.6143 91.954 16.5511C91.7931 16.4879 91.6464 16.3923 91.5226 16.2702C91.284 16.0244 91.1508 15.6925 91.1521 15.347C91.1534 15.0016 91.2892 14.6708 91.5297 14.4268C91.7814 14.185 92.1146 14.0503 92.4608 14.0503C92.8071 14.0503 93.1402 14.185 93.3919 14.4268C93.6324 14.6708 93.7682 15.0016 93.7695 15.347C93.7709 15.6925 93.6377 16.0244 93.399 16.2702C93.2744 16.393 93.1267 16.489 92.9647 16.5522C92.8027 16.6154 92.6298 16.6447 92.4564 16.6381H92.459Z" fill="#0CA5F3"/>
<path d="M100.563 21.9141C100.693 22.4358 100.761 22.9713 100.767 23.5094V23.7457C101.961 22.5246 103.382 21.9141 105.029 21.9141C106.262 21.9141 107.254 22.2075 108.005 22.7943C108.747 23.3714 109.118 24.1933 109.118 25.2599V31.4825C109.118 32.1475 109.157 32.6342 109.233 32.9426C109.302 33.2386 109.457 33.5069 109.677 33.7128C109.946 33.9773 110.442 34.1778 111.165 34.3143V34.6227H104.78V34.3143C105.357 34.2367 105.771 34.1258 106.021 33.9842C106.272 33.8426 106.474 33.6009 106.628 33.2582C106.734 33.0328 106.805 32.6937 106.852 32.2383C106.899 31.7828 106.917 31.1299 106.917 30.2786V27.1673C106.917 26.1001 106.881 25.3185 106.809 24.8225C106.737 24.3265 106.6 23.9255 106.398 23.6194C106.164 23.2652 105.833 22.9875 105.447 22.8195C105.016 22.6253 104.549 22.5278 104.078 22.5336C103.558 22.5293 103.044 22.6394 102.57 22.8565C102.134 23.0481 101.754 23.3514 101.468 23.7367C101.179 24.1286 100.984 24.5834 100.899 25.0651C100.807 25.5587 100.761 26.3778 100.762 27.5226V30.3994L100.776 31.4816C100.776 32.1466 100.815 32.6333 100.891 32.9417C100.96 33.2377 101.115 33.506 101.335 33.7119C101.604 33.9764 102.1 34.1769 102.823 34.3134V34.6218H96.438V34.3134C97.0162 34.2358 97.4301 34.1264 97.6795 33.9851C97.929 33.8438 98.1315 33.6034 98.287 33.2637C98.3928 33.04 98.4673 32.7015 98.5105 32.2482C98.5536 31.7949 98.5755 31.1392 98.5761 30.2813V26.6739C98.5761 25.6711 98.5518 24.9671 98.5034 24.5618C98.4733 24.2126 98.3647 23.875 98.1859 23.5752C98.0454 23.3264 97.8405 23.1214 97.5935 22.9827C97.3618 22.8625 97.0292 22.787 96.5959 22.7564V22.4479L100.563 21.9141Z" fill="#0CA5F3"/>
<path d="M115.458 35.8709L115.198 35.9449C115.077 35.7197 114.91 35.524 114.707 35.3713C114.525 35.2586 114.313 35.2025 114.1 35.2099C113.91 35.2052 113.723 35.2452 113.551 35.3267C113.379 35.4082 113.228 35.529 113.11 35.6797C112.855 35.9936 112.727 36.4003 112.728 36.8999C112.728 37.6923 113.118 38.3438 113.898 38.8542C114.677 39.3646 115.674 39.6193 116.889 39.6181C118.179 39.6181 119.221 39.3364 120.016 38.773C120.812 38.2097 121.209 37.4774 121.208 36.5762C121.208 35.8511 120.942 35.2953 120.41 34.9087C119.878 34.5221 119.122 34.3285 118.142 34.3279H115.845C114.899 34.3279 114.138 34.1021 113.562 33.6506C112.965 33.1793 112.666 32.6141 112.666 31.9552C112.666 31.2583 112.984 30.7082 113.62 30.3048C113.948 30.1082 114.545 29.8978 115.411 29.6735C114.574 29.2821 113.923 28.7663 113.46 28.126C113.007 27.5158 112.764 26.7713 112.766 26.0067C112.766 25.0201 113.128 24.1402 113.851 23.367C114.274 22.9109 114.785 22.547 115.351 22.2973C115.916 22.0476 116.526 21.9172 117.143 21.9141C118.069 21.9141 119.014 22.2469 119.981 22.9125C120.354 22.6015 120.765 22.3422 121.205 22.1414C121.577 21.9886 121.974 21.9114 122.375 21.9141C122.848 21.9141 123.23 22.0169 123.519 22.2226C123.868 22.4769 124.041 22.7907 124.041 23.1623C124.047 23.3707 123.974 23.5735 123.837 23.7286C123.773 23.8019 123.694 23.8602 123.606 23.8995C123.518 23.9387 123.423 23.958 123.327 23.9559C123.015 23.9559 122.733 23.7893 122.481 23.4563L122.149 23.0153C122.056 22.8982 121.937 22.8053 121.802 22.7442C121.667 22.683 121.519 22.6554 121.371 22.6636C121.017 22.6636 120.642 22.8439 120.247 23.2047C121.033 24.175 121.426 25.1743 121.426 26.2024C121.426 27.486 120.866 28.4996 119.746 29.2433C119.196 29.6114 118.581 29.866 117.934 29.9928C117.741 30.0228 117.128 30.0718 116.095 30.1398C114.676 30.2281 113.967 30.6298 113.967 31.3446C113.967 31.9717 114.57 32.2852 115.776 32.2852H118.163C119.002 32.2852 119.711 32.361 120.291 32.5125C120.838 32.6496 121.353 32.8918 121.81 33.2258C122.659 33.8625 123.083 34.7587 123.084 35.9142C123.084 37.1876 122.592 38.182 121.608 38.8975C120.596 39.6316 119.11 39.9986 117.153 39.9986C115.05 39.9986 113.56 39.5679 112.683 38.7063C112.124 38.1478 111.844 37.4521 111.844 36.6195C111.829 36.0026 112.052 35.4042 112.465 34.952C112.654 34.7336 112.888 34.5595 113.15 34.4415C113.412 34.3235 113.696 34.2644 113.982 34.2684C114.374 34.2522 114.757 34.3949 115.046 34.6652C115.184 34.8 115.292 34.9631 115.363 35.1436C115.434 35.3241 115.467 35.5179 115.458 35.7122V35.8709ZM114.838 26.1077C114.838 27.1634 115.056 28.0238 115.493 28.6887C115.93 29.3537 116.489 29.6858 117.171 29.6852C117.862 29.6852 118.4 29.3546 118.784 28.6932C119.168 28.0319 119.36 27.1153 119.36 25.9435C119.36 24.7315 119.11 23.7635 118.611 23.0396C118.247 22.5021 117.776 22.2334 117.2 22.2334C116.508 22.2334 115.951 22.5854 115.529 23.2894C115.298 23.6912 115.128 24.1263 115.025 24.58C114.901 25.0795 114.838 25.5926 114.838 26.1077Z" fill="#0CA5F3"/>
<path d="M127.254 31.3159C127.602 31.3142 127.942 31.4173 128.232 31.6123C128.522 31.8072 128.748 32.0853 128.883 32.4113C129.017 32.7373 129.054 33.0965 128.987 33.4435C128.921 33.7905 128.755 34.1096 128.51 34.3606C128.265 34.6116 127.953 34.783 127.612 34.8533C127.272 34.9236 126.918 34.8895 126.596 34.7554C126.275 34.6213 126 34.3932 125.806 34.0999C125.612 33.8066 125.507 33.4614 125.506 33.1079C125.505 32.8733 125.549 32.6407 125.636 32.4235C125.723 32.2063 125.851 32.0087 126.014 31.8422C126.176 31.6756 126.369 31.5434 126.582 31.4531C126.795 31.3628 127.023 31.3162 127.254 31.3159Z" fill="#0CA5F3"/>
<path d="M18.2661 30.9094C11.4592 30.9094 5.92212 25.2784 5.92212 18.3568C5.92212 11.4352 11.4592 5.80322 18.2661 5.80322C20.2059 5.80558 22.1179 6.27153 23.8481 7.16351C25.5782 8.05548 27.078 9.3485 28.2264 10.9383L28.3151 11.0663L27.0621 12.0944L26.961 11.9519C25.8832 10.4378 24.4413 9.23042 22.7732 8.44534C21.1052 7.66027 19.2669 7.3238 17.4344 7.46816C15.6019 7.61251 13.8365 8.23286 12.3072 9.2698C10.7779 10.3067 9.53602 11.7256 8.70036 13.3904C7.8647 15.0553 7.46328 16.9104 7.53452 18.7782C7.60576 20.646 8.14728 22.464 9.10724 24.058C10.0672 25.652 11.4134 26.9687 13.0171 27.8821C14.6207 28.7954 16.4281 29.2748 18.2661 29.2744C20.5281 29.2803 22.7333 28.5538 24.5622 27.2002L24.6953 27.1019L25.6388 28.4258L25.5058 28.5232C23.4028 30.0799 20.8672 30.9157 18.2661 30.9094Z" fill="#F05A28"/>
<path d="M18.0527 33.6752C9.74714 33.6752 2.98987 26.8032 2.98987 18.3566C2.98987 9.91 9.74714 3.03711 18.0527 3.03711C20.4216 3.03752 22.757 3.60563 24.8696 4.69538C26.9822 5.78513 28.8126 7.36585 30.2123 9.30937L30.3009 9.43743L29.0541 10.4619L28.953 10.3194C27.7041 8.56917 26.0651 7.14485 24.1704 6.16321C22.2757 5.18158 20.1792 4.67059 18.0527 4.67214C10.633 4.67214 4.59671 10.8109 4.59671 18.3566C4.59671 25.9022 10.633 32.0401 18.0527 32.0401C20.3561 32.0406 22.621 31.4401 24.6309 30.296L24.7736 30.2148L25.5602 31.6406L25.4174 31.7218C23.1673 33.0031 20.6315 33.6756 18.0527 33.6752Z" fill="#F05A28"/>
<path d="M18.0495 36.711C8.0972 36.711 0 28.4764 0 18.356C0 8.23556 8.0972 7.95515e-07 18.0495 7.95515e-07C20.8646 -0.000842155 23.6407 0.668237 26.156 1.95373C28.6713 3.23922 30.8559 5.10545 32.5351 7.40317L32.6335 7.53123L31.3708 8.56744L31.2688 8.42855C28.158 4.17279 23.2159 1.63503 18.0495 1.63503C8.98309 1.63503 1.60773 9.13559 1.60773 18.356C1.60773 27.5763 8.98309 35.076 18.0495 35.076C20.4212 35.081 22.7654 34.5596 24.9185 33.5483L25.0675 33.4788L25.7397 34.9633L25.5907 35.0336C23.2269 36.144 20.6533 36.7164 18.0495 36.711Z" fill="#F05A28"/>
<path d="M25.511 36.4993H20.1611C20.1611 36.4993 23.8439 36.034 24.9293 33.7036L25.511 36.4993Z" fill="#F05A28"/>
</g>
</g>
<defs>
<clipPath id="clip0_5403_6744">
<rect width="129" height="40" fill="white"/>
</clipPath>
<clipPath id="clip1_5403_6744">
<rect width="129" height="40" fill="white"/>
</clipPath>
</defs>
</svg>
